<mxfile host="app.diagrams.net" modified="2023-07-22T07:48:22.889Z" agent="Mozilla/5.0 (Windows NT 10.0; Win64; x64) AppleWebKit/537.36 (KHTML, like Gecko) Chrome/114.0.0.0 Safari/537.36" etag="tijIN6zDAVrCjTRcl_m1" version="21.6.5" type="github">
  <diagram name="Page-1" id="WFtt4F7jz3-OVqdlrwpw">
    <mxGraphModel dx="1750" dy="1060" grid="1" gridSize="10" guides="1" tooltips="1" connect="1" arrows="1" fold="1" page="1" pageScale="1" pageWidth="850" pageHeight="1100" math="0" shadow="0">
      <root>
        <mxCell id="0" />
        <mxCell id="1" parent="0" />
        <mxCell id="DgjRYhS0F44xCAsBbxRi-1" value="Forgery test Modules" style="swimlane;whiteSpace=wrap;html=1;fillColor=#f8cecc;strokeColor=#b85450;" vertex="1" parent="1">
          <mxGeometry x="520" y="330" width="310" height="630" as="geometry" />
        </mxCell>
        <mxCell id="DgjRYhS0F44xCAsBbxRi-13" value="Pixel Density" style="rounded=0;whiteSpace=wrap;html=1;fillColor=#fff2cc;strokeColor=#d6b656;" vertex="1" parent="DgjRYhS0F44xCAsBbxRi-1">
          <mxGeometry y="310" width="310" height="60" as="geometry" />
        </mxCell>
        <mxCell id="DgjRYhS0F44xCAsBbxRi-14" value="Text uniformity" style="rounded=0;whiteSpace=wrap;html=1;fillColor=#fff2cc;strokeColor=#d6b656;" vertex="1" parent="DgjRYhS0F44xCAsBbxRi-1">
          <mxGeometry y="380" width="310" height="60" as="geometry" />
        </mxCell>
        <mxCell id="DgjRYhS0F44xCAsBbxRi-18" value="More to come..." style="rounded=0;whiteSpace=wrap;html=1;fillColor=#fff2cc;strokeColor=#d6b656;" vertex="1" parent="DgjRYhS0F44xCAsBbxRi-1">
          <mxGeometry y="560" width="310" height="60" as="geometry" />
        </mxCell>
        <mxCell id="DgjRYhS0F44xCAsBbxRi-10" value="Signature Forgery" style="rounded=0;whiteSpace=wrap;html=1;fillColor=#fff2cc;strokeColor=#d6b656;" vertex="1" parent="DgjRYhS0F44xCAsBbxRi-1">
          <mxGeometry y="100" width="310" height="60" as="geometry" />
        </mxCell>
        <mxCell id="DgjRYhS0F44xCAsBbxRi-11" value="Seal/Stamp Forgery" style="rounded=0;whiteSpace=wrap;html=1;fillColor=#fff2cc;strokeColor=#d6b656;" vertex="1" parent="DgjRYhS0F44xCAsBbxRi-1">
          <mxGeometry y="170" width="310" height="60" as="geometry" />
        </mxCell>
        <mxCell id="DgjRYhS0F44xCAsBbxRi-12" value="Handwriting Consistency detection" style="rounded=0;whiteSpace=wrap;html=1;fillColor=#fff2cc;strokeColor=#d6b656;" vertex="1" parent="DgjRYhS0F44xCAsBbxRi-1">
          <mxGeometry y="240" width="310" height="60" as="geometry" />
        </mxCell>
        <mxCell id="DgjRYhS0F44xCAsBbxRi-9" value="Metadata Verification" style="rounded=0;whiteSpace=wrap;html=1;fillColor=#fff2cc;strokeColor=#d6b656;" vertex="1" parent="1">
          <mxGeometry x="520" y="360" width="310" height="60" as="geometry" />
        </mxCell>
        <mxCell id="DgjRYhS0F44xCAsBbxRi-22" style="edgeStyle=orthogonalEdgeStyle;rounded=0;orthogonalLoop=1;jettySize=auto;html=1;entryX=0;entryY=0.25;entryDx=0;entryDy=0;" edge="1" parent="1" source="DgjRYhS0F44xCAsBbxRi-19" target="DgjRYhS0F44xCAsBbxRi-21">
          <mxGeometry relative="1" as="geometry" />
        </mxCell>
        <mxCell id="DgjRYhS0F44xCAsBbxRi-19" value="Input Forgery document" style="ellipse;whiteSpace=wrap;html=1;aspect=fixed;" vertex="1" parent="1">
          <mxGeometry x="130" y="400" width="140" height="140" as="geometry" />
        </mxCell>
        <mxCell id="DgjRYhS0F44xCAsBbxRi-20" value="Investigation Team" style="shape=umlActor;verticalLabelPosition=bottom;verticalAlign=top;html=1;outlineConnect=0;" vertex="1" parent="1">
          <mxGeometry x="60" y="430" width="30" height="60" as="geometry" />
        </mxCell>
        <mxCell id="DgjRYhS0F44xCAsBbxRi-23" style="edgeStyle=orthogonalEdgeStyle;rounded=0;orthogonalLoop=1;jettySize=auto;html=1;entryX=0.5;entryY=0;entryDx=0;entryDy=0;" edge="1" parent="1" source="DgjRYhS0F44xCAsBbxRi-21" target="DgjRYhS0F44xCAsBbxRi-1">
          <mxGeometry relative="1" as="geometry">
            <Array as="points">
              <mxPoint x="410" y="310" />
              <mxPoint x="675" y="310" />
            </Array>
          </mxGeometry>
        </mxCell>
        <mxCell id="DgjRYhS0F44xCAsBbxRi-21" value="Test Case Handler" style="shape=parallelogram;perimeter=parallelogramPerimeter;whiteSpace=wrap;html=1;fixedSize=1;" vertex="1" parent="1">
          <mxGeometry x="340" y="450" width="150" height="60" as="geometry" />
        </mxCell>
        <mxCell id="DgjRYhS0F44xCAsBbxRi-25" style="edgeStyle=orthogonalEdgeStyle;rounded=0;orthogonalLoop=1;jettySize=auto;html=1;entryX=0.5;entryY=1;entryDx=0;entryDy=0;" edge="1" parent="1" source="DgjRYhS0F44xCAsBbxRi-18" target="DgjRYhS0F44xCAsBbxRi-21">
          <mxGeometry relative="1" as="geometry" />
        </mxCell>
      </root>
    </mxGraphModel>
  </diagram>
</mxfile>
